<?xml version="1.0" encoding="utf-8"?>
<!-- Generator: Adobe Illustrator 17.1.0, SVG Export Plug-In . SVG Version: 6.00 Build 0)  -->
<!DOCTYPE svg PUBLIC "-//W3C//DTD SVG 1.1//EN" "http://www.w3.org/Graphics/SVG/1.1/DTD/svg11.dtd">
<svg version="1.1" id="Color" xmlns="http://www.w3.org/2000/svg" xmlns:xlink="http://www.w3.org/1999/xlink" x="0px" y="0px"
	 viewBox="0 0 512 512" enable-background="new 0 0 512 512" xml:space="preserve">
<g>
	<defs>
		<circle id="SVGID_1_" cx="256" cy="256" r="256"/>
	</defs>
	<clipPath id="SVGID_2_">
		<use xlink:href="#SVGID_1_"  overflow="visible"/>
	</clipPath>
	<g clip-path="url(#SVGID_2_)">
		<rect x="0.1" y="0.2" fill="#4A2C42" width="512" height="512"/>
		<g>
			<path fill="#C88757" d="M405.9,92.4L42.3,282.8c-4.7-1.5-7.4-2.3-12.1-3.8l-3.4-6.5c1.5-4.7,2.3-7.4,3.8-12.1L394.2,70
				c4.7,1.5,7.4,2.3,12.1,3.8l3.4,6.5C408.3,85,407.4,87.7,405.9,92.4z"/>
			
				<rect x="83.8" y="204.1" transform="matrix(-0.886 0.4638 -0.4638 -0.886 632.8716 389.7433)" fill="#CC9459" width="369.4" height="137.2"/>
			<path fill="#C88757" d="M479.5,242.1L115.8,432.5c-4.7-1.5-7.4-2.3-12.1-3.8l-3.4-6.5c1.5-4.7,2.3-7.4,3.8-12.1l363.7-190.4
				c4.7,1.5,7.4,2.3,12.1,3.8l3.4,6.5C481.9,234.7,481,237.4,479.5,242.1z"/>
			
				<rect x="109.3" y="287.6" transform="matrix(-0.886 0.4638 -0.4638 -0.886 704.0287 471.721)" fill="#B86451" width="369.4" height="69.7"/>
			
				<rect x="134.7" y="364.7" transform="matrix(-0.886 0.4638 -0.4638 -0.886 774.0505 549.6176)" fill="#B86451" width="369.4" height="10.6"/>
			
				<rect x="29" y="133.2" transform="matrix(-0.886 0.4638 -0.4638 -0.886 481.0285 217.7474)" fill="#B86451" width="369.4" height="69.7"/>
		</g>
	</g>
</g>
</svg>
