<?xml version="1.0" encoding="utf-8"?>
<!-- Generator: Adobe Illustrator 17.1.0, SVG Export Plug-In . SVG Version: 6.00 Build 0)  -->
<!DOCTYPE svg PUBLIC "-//W3C//DTD SVG 1.1//EN" "http://www.w3.org/Graphics/SVG/1.1/DTD/svg11.dtd">
<svg version="1.1" id="Color" xmlns="http://www.w3.org/2000/svg" xmlns:xlink="http://www.w3.org/1999/xlink" x="0px" y="0px"
	 viewBox="0 0 512 512" enable-background="new 0 0 512 512" xml:space="preserve">
<path fill="#FFFFFF" stroke="#000000" stroke-width="1.0641" stroke-miterlimit="10" d="M119.4,458.6V127.2
	C119.4,57,176.3,0,246.6,0h2.6c70.5,0,127.7,57.2,127.7,127.7v330.9H119.4z"/>
<path fill="#FFFFFF" stroke="#000000" stroke-width="1.0641" stroke-miterlimit="10" d="M149.9,458.6V205.7
	c0-53.6,43.5-97.1,97.1-97.1h2c53.8,0,97.4,43.6,97.4,97.4v252.5H149.9z"/>
<path fill="#FFFFFF" stroke="#000000" stroke-width="1.0641" stroke-miterlimit="10" d="M178.4,458.6V279.2
	c0-38,30.8-68.9,68.9-68.9h1.4c38.2,0,69.1,30.9,69.1,69.1v179.1H178.4z"/>
<path fill="#FFFFFF" stroke="#000000" stroke-width="1.0641" stroke-miterlimit="10" d="M199.6,458.6V333.9
	c0-26.5,21.4-47.9,47.9-47.9h1c26.5,0,48.1,21.5,48.1,48.1v124.6H199.6z"/>
<path fill="#FFFFFF" stroke="#000000" stroke-width="1.0641" stroke-miterlimit="10" d="M218.9,458.6v-75.1
	c0-15.9,12.9-28.8,28.8-28.8h0.6c16,0,28.9,13,28.9,28.9v75H218.9z"/>
<rect x="35.1" y="472.5" fill="none" width="426" height="90"/>
<text transform="matrix(1 0 0 1 117.6472 489.3513)" font-family="'CharlemagneStd-Bold'" font-size="24" letter-spacing="24">CITADEL</text>
</svg>
