<?xml version="1.0" encoding="utf-8"?>
<!-- Generator: Adobe Illustrator 17.1.0, SVG Export Plug-In . SVG Version: 6.00 Build 0)  -->
<!DOCTYPE svg PUBLIC "-//W3C//DTD SVG 1.1//EN" "http://www.w3.org/Graphics/SVG/1.1/DTD/svg11.dtd">
<svg version="1.1" id="Color" xmlns="http://www.w3.org/2000/svg" xmlns:xlink="http://www.w3.org/1999/xlink" x="0px" y="0px"
	 viewBox="0 0 512 512" enable-background="new 0 0 512 512" xml:space="preserve">
<g>
	<defs>
		<circle id="SVGID_1_" cx="256" cy="256" r="256"/>
	</defs>
	<clipPath id="SVGID_2_">
		<use xlink:href="#SVGID_1_"  overflow="visible"/>
	</clipPath>
	<g clip-path="url(#SVGID_2_)">
		<rect y="0.2" fill="#FACA66" width="512" height="512"/>
		<g>
			<g>
				<g>
					<g enable-background="new    ">
						<g>
							<polygon fill="#7A4800" points="345.4,87.3 345.4,117.1 210.4,117.9 210.4,88.1 							"/>
						</g>
						<g>
							<polygon fill="#834D00" points="210.4,88.1 210.4,117.9 134.3,191.7 134.3,161.9 							"/>
						</g>
						<g enable-background="new    ">
							<g>
								<defs>
									<path id="SVGID_3_" d="M252.2,194.8v29.8c0-22-18.4-39.8-41.2-39.8s-41.2,17.8-41.2,39.8v-29.8c0-22,18.4-39.8,41.2-39.8
										S252.2,172.8,252.2,194.8z"/>
								</defs>
								<clipPath id="SVGID_4_">
									<use xlink:href="#SVGID_3_"  overflow="visible"/>
								</clipPath>
								<g clip-path="url(#SVGID_4_)">
									<path fill="none" d="M252.2,194.8v29.8c0-22-18.4-39.8-41.2-39.8c-11,0-21.1,4.2-28.5,11V166c7.4-6.8,17.4-11,28.5-11
										C233.8,155,252.2,172.8,252.2,194.8"/>
									<path fill="none" d="M182.6,166v29.8c-2.6,2.4-4.8,5-6.7,8V174C177.8,171,180,168.3,182.6,166"/>
									<path fill="none" d="M175.9,173.9v29.8c-1.8,2.8-3.2,5.9-4.3,9.1V183C172.7,179.8,174.1,176.8,175.9,173.9"/>
									<path fill="none" d="M171.7,183v29.8c-1.2,3.7-1.8,7.6-1.8,11.7v-29.8C169.8,190.7,170.5,186.7,171.7,183"/>
								</g>
							</g>
						</g>
						<g>
							<polygon fill="#7D6533" points="157.7,196.4 157.7,226.3 134.3,191.7 134.3,161.9 							"/>
						</g>
						<g>
							<polygon fill="#7A4800" points="414.6,196.4 414.6,226.3 345.4,117.1 345.4,87.3 							"/>
						</g>
						<g enable-background="new    ">
							<g>
								<defs>
									<path id="SVGID_5_" d="M211,264.4c-22.8,0-41.2-17.8-41.2-39.8v-29.8c0,22,18.4,39.8,41.2,39.8c22.7,0,41.2-17.8,41.2-39.8
										v29.8C252.2,246.6,233.8,264.4,211,264.4z"/>
								</defs>
								<clipPath id="SVGID_6_">
									<use xlink:href="#SVGID_5_"  overflow="visible"/>
								</clipPath>
								<g clip-path="url(#SVGID_6_)">
									<path fill="none" d="M252.2,194.8v29.8c0,4.1-0.6,8-1.8,11.7v-29.8C251.6,202.8,252.2,198.8,252.2,194.8"/>
									<path fill="none" d="M250.4,206.5v29.8c-1,3.2-2.5,6.3-4.3,9.1v-29.8C247.9,212.7,249.4,209.7,250.4,206.5"/>
									<path fill="none" d="M246.1,215.6v29.8c-1.9,2.9-4.1,5.6-6.7,8v-29.8C242,221.2,244.3,218.5,246.1,215.6"/>
									<path fill="none" d="M239.5,223.5v29.8c-7.4,6.8-17.4,11-28.5,11c-22.8,0-41.2-17.8-41.2-39.8v-29.8
										c0,22,18.4,39.8,41.2,39.8C222.1,234.5,232.1,230.3,239.5,223.5"/>
								</g>
							</g>
						</g>
						<g>
							<path fill="#DD8200" d="M211,155c22.7,0,41.2,17.8,41.2,39.8s-18.4,39.8-41.2,39.8s-41.2-17.8-41.2-39.8S188.3,155,211,155z"
								/>
						</g>
						<g>
							<polygon fill="#8B7039" points="414.6,196.4 414.6,226.3 340.7,336.5 340.7,306.7 							"/>
						</g>
						<g>
							<polygon fill="#8A5100" points="157.7,196.4 157.7,226.3 111.3,337.5 111.3,307.7 							"/>
						</g>
						<g>
							<polygon fill="#7D6533" points="340.7,306.7 340.7,336.5 208,338.8 208,308.9 							"/>
						</g>
						<g>
							<polygon fill="#7D6533" points="208,397.8 208,427.6 111.3,337.5 111.3,307.7 							"/>
						</g>
						<g>
							<path fill="#A8401E" d="M345.4,87.3l69.2,109.2l-73.9,110.3L208,308.9v88.8l-96.7-90.1l46.3-111.3l-23.3-34.5L210.4,88
								L345.4,87.3z M211,234.5c22.7,0,41.2-17.8,41.2-39.8s-18.4-39.8-41.2-39.8s-41.2,17.8-41.2,39.8S188.3,234.5,211,234.5"/>
						</g>
						<g>
							<path fill="#FFB03B" d="M345.4,99.3l69.2,109.2l-73.9,110.3L208,320.9v88.8l-96.7-90.1l46.3-111.3l-23.3-34.5l76.1-73.8
								L345.4,99.3z M211,246.5c22.7,0,41.2-17.8,41.2-39.8s-18.4-39.8-41.2-39.8s-41.2,17.8-41.2,39.8S188.3,246.5,211,246.5"/>
						</g>
						<g>
							<path fill="#DD8200" d="M256,29.3c121.3,0,219.7,95,219.7,212.2S377.3,453.7,256,453.7s-219.7-95-219.7-212.2
								C36.3,124.3,134.7,29.3,256,29.3z M340.7,306.7l73.9-110.3L345.4,87.3l-134.9,0.8l-76.1,73.8l23.3,34.5l-46.3,111.3
								l96.7,90.1V309L340.7,306.7"/>
						</g>
						<g enable-background="new    ">
							<g>
								<defs>
									<path id="SVGID_7_" d="M475.7,241.5v29.8c0,117.2-98.4,212.2-219.7,212.2s-219.7-95-219.7-212.2v-29.8
										c0,117.2,98.4,212.2,219.7,212.2C377.3,453.7,475.7,358.7,475.7,241.5z"/>
								</defs>
								<use xlink:href="#SVGID_7_"  overflow="visible" fill="#A8401E"/>
								<clipPath id="SVGID_8_">
									<use xlink:href="#SVGID_7_"  overflow="visible"/>
								</clipPath>
								<g clip-path="url(#SVGID_8_)">
									<path fill="#A8401E" d="M475.7,241.5v29.8c0,21.8-3.4,42.8-9.7,62.5V304C472.3,284.3,475.7,263.3,475.7,241.5"/>
									<path fill="#A8401E" d="M466,304.1v29.8c-5.5,17.2-13.2,33.4-22.7,48.5v-29.8C452.8,337.5,460.5,321.2,466,304.1"/>
									<path fill="#A8401E" d="M443.3,352.5v29.8c-9.9,15.6-21.9,29.8-35.5,42.4V395C421.4,382.4,433.4,368.1,443.3,352.5"/>
									<path fill="#A8401E" d="M407.8,395v29.8c-39.4,36.4-92.9,58.8-151.8,58.8c-121.3,0-219.7-95-219.7-212.2v-29.8
										c0,117.2,98.4,212.2,219.7,212.2C314.9,453.7,368.3,431.4,407.8,395"/>
								</g>
							</g>
						</g>
					</g>
				</g>
			</g>
		</g>
	</g>
</g>
</svg>
